<svg width="152" height="180" viewBox="0 0 152 180" fill="none" xmlns="http://www.w3.org/2000/svg">
<rect x="0.125" y="0.5" width="151.75" height="147.667" rx="8" fill="#EEEEEE"/>
<path d="M79.1249 28.501C77.9707 28.501 77.0416 29.4302 77.0416 30.5844V32.6677C77.0416 33.8219 77.9707 34.751 79.1249 34.751H99.9664L99.9989 48.2601C100.003 49.9795 101.396 51.3722 103.116 51.377L116.625 51.4126V110.792C116.625 112.577 115.285 113.917 113.5 113.917H65.5833C63.7979 113.917 62.4583 112.577 62.4583 110.792V107.667C62.4583 106.512 61.5291 105.583 60.3749 105.583H58.2916C57.1374 105.583 56.2083 106.512 56.2083 107.667V110.792C56.2083 115.931 60.4436 120.167 65.5833 120.167H113.5C118.64 120.167 122.875 115.931 122.875 110.792V47.2785C122.875 46.4497 122.545 45.6551 121.959 45.069L106.306 29.4155C105.72 28.8293 104.925 28.5002 104.096 28.5L79.1249 28.501ZM56.2083 72.251C56.2083 73.4052 57.1374 74.3344 58.2916 74.3344H60.3749C61.5291 74.3344 62.4583 73.4052 62.4583 72.251V51.4177C62.4583 50.2635 61.5291 49.3344 60.3749 49.3344H58.2916C57.1374 49.3344 56.2083 50.2635 56.2083 51.4177V72.251Z" fill="#242730"/>
<path d="M65.5833 28.501C60.4436 28.501 56.2083 32.7362 56.2083 37.876V43.0843C56.2083 44.2385 57.1375 45.1676 58.2917 45.1676H60.375C61.5292 45.1676 62.4583 44.2385 62.4583 43.0843V37.876C62.4583 36.0908 63.798 34.751 65.5833 34.751H70.7917C71.9459 34.751 72.875 33.8218 72.875 32.6676V30.5843C72.875 29.4301 71.9459 28.501 70.7917 28.501H65.5833ZM33.2917 78.501C30.9833 78.501 29.125 80.3593 29.125 82.6676V97.251C29.125 99.5593 30.9833 101.418 33.2917 101.418H85.375C87.6834 101.418 89.5417 99.5593 89.5417 97.251V82.6676C89.5417 80.3593 87.6834 78.501 85.375 78.501H33.2917ZM47.3053 83.8883C48.2403 83.8883 49.1377 84.1054 50.0926 84.5231C50.3313 84.0856 50.5664 83.9046 51.0041 83.9046C51.6208 83.9046 51.883 84.1636 51.883 84.9992L51.9038 87.526C51.9038 88.3615 51.7022 88.6613 50.8866 88.6613C50.2898 88.6613 50.0727 88.3624 49.8937 87.7458C49.5754 86.6118 48.9782 86.0164 47.5459 86.0164C45.5765 86.0164 44.4616 87.3692 44.4616 89.9552C44.4616 92.5215 45.577 93.894 47.5663 93.894C49.3964 93.894 50.4914 92.5391 51.3667 92.5391C51.8641 92.5391 52.2619 93.0173 52.2619 93.654C52.2619 94.6883 50.0524 96.0425 47.3669 96.0425C43.9453 96.0425 41.6784 93.5361 41.6784 89.9552C41.6784 86.5536 43.9832 83.8883 47.3053 83.8883ZM58.8776 83.8883C59.7728 83.8883 60.5852 84.0673 61.4207 84.4255C61.6396 83.9486 61.8805 83.8883 62.4176 83.8883C63.0543 83.8883 63.2106 84.0902 63.2314 84.9259L63.272 86.7936V86.8953C63.272 87.6313 63.0351 87.9288 62.2792 87.9288C61.4834 87.9288 61.4031 87.4908 61.1644 87.0133C60.7665 86.2374 60.0689 85.8007 59.134 85.8007C57.9205 85.8007 57.1849 86.4374 57.1849 87.233C57.1849 88.2476 58.3007 88.3452 60.3099 88.763C62.717 89.2602 63.8499 90.3375 63.8499 92.3071C63.8499 94.6941 62.1779 96.0261 59.1542 96.0261C58.1595 96.0261 57.2432 95.9241 56.2287 95.546C56.0098 95.9235 55.7507 96.0261 55.313 96.0261C54.5173 96.0261 54.2231 95.7879 54.2023 94.9723L54.1412 92.6814V92.5837C54.1412 91.7483 54.4201 91.4281 55.2357 91.4281C55.9917 91.4281 56.0902 91.9851 56.4483 92.6814C56.9655 93.6959 57.8412 94.1747 59.1542 94.1747C60.3279 94.1747 61.0422 93.6777 61.0422 92.7627C61.0422 91.5094 59.9306 91.5085 57.7424 90.9317C55.5541 90.3548 54.4016 89.6174 54.4016 87.648C54.4016 85.4397 56.2318 83.8883 58.8776 83.8883ZM66.2059 84.2057H69.0908C69.8866 84.2057 70.2871 84.4841 70.2871 85.2799C70.2871 86.0756 69.8866 86.3542 69.0908 86.3542H68.8345L71.1619 93.2349L73.5667 86.3542H73.3104C72.5147 86.3542 72.1141 86.0756 72.1141 85.2799C72.1141 84.4643 72.535 84.2057 73.3307 84.2057H75.7762C76.5918 84.2057 76.9888 84.4643 76.9888 85.2799C76.9888 85.9762 76.6113 86.3542 75.9349 86.3542H75.7762L72.8138 94.7689C72.5552 95.5257 72.4531 95.721 71.6176 95.721H70.4255C69.5502 95.721 69.4917 95.4851 69.2331 94.7689L66.2059 86.3542H66.0471C65.3707 86.3542 65.0339 85.9762 65.0339 85.2799C65.0339 84.4643 65.4102 84.2057 66.2059 84.2057Z" fill="#235243"/>
<path d="M63.8434 140.573C63.6751 140.405 63.5416 140.205 63.4505 139.985C63.3594 139.766 63.3125 139.53 63.3125 139.292C63.3124 139.054 63.3593 138.818 63.4504 138.598C63.5415 138.378 63.675 138.178 63.8433 138.01C64.0116 137.842 64.2114 137.708 64.4313 137.617C64.6512 137.526 64.8869 137.479 65.1249 137.479C65.3629 137.479 65.5986 137.526 65.8186 137.617C66.0385 137.708 66.2383 137.842 66.4066 138.01L74.1875 145.791V126.604C74.1875 126.124 74.3785 125.663 74.7184 125.323C75.0583 124.983 75.5193 124.792 76 124.792C76.4807 124.792 76.9417 124.983 77.2816 125.323C77.6215 125.663 77.8125 126.124 77.8125 126.604V145.791L85.5934 138.01C85.7617 137.842 85.9615 137.708 86.1814 137.617C86.4014 137.526 86.6371 137.479 86.8751 137.479C87.1131 137.479 87.3488 137.526 87.5687 137.617C87.7886 137.708 87.9884 137.842 88.1567 138.01C88.325 138.178 88.4585 138.378 88.5496 138.598C88.6407 138.818 88.6876 139.054 88.6875 139.292C88.6875 139.53 88.6406 139.766 88.5495 139.985C88.4584 140.205 88.3249 140.405 88.1566 140.573L77.2816 151.448C77.2764 151.454 77.2705 151.458 77.2653 151.463C77.228 151.5 77.1896 151.535 77.1492 151.568C77.1271 151.586 77.1036 151.602 77.0808 151.619C77.0563 151.638 77.0321 151.657 77.0066 151.674C76.9803 151.692 76.9528 151.707 76.9257 151.723C76.902 151.737 76.8789 151.752 76.8545 151.765C76.8273 151.78 76.7992 151.792 76.7714 151.805C76.7455 151.817 76.7201 151.83 76.6936 151.841C76.6669 151.852 76.6394 151.861 76.6122 151.871C76.5837 151.881 76.5553 151.892 76.5261 151.901C76.499 151.909 76.4715 151.915 76.4441 151.922C76.4142 151.93 76.3845 151.938 76.3541 151.944C76.3225 151.95 76.2906 151.954 76.2589 151.959C76.2321 151.963 76.2059 151.968 76.1789 151.97C76.1194 151.976 76.0597 151.979 76 151.979C75.9403 151.979 75.8806 151.976 75.8211 151.97C75.7941 151.968 75.7679 151.963 75.7411 151.959C75.7094 151.954 75.6775 151.95 75.6459 151.944C75.6155 151.938 75.5858 151.93 75.5559 151.922C75.5285 151.915 75.501 151.909 75.4739 151.901C75.4447 151.892 75.4163 151.881 75.3878 151.871C75.3606 151.861 75.3331 151.852 75.3064 151.841C75.2799 151.83 75.2545 151.817 75.2286 151.805C75.2008 151.792 75.1727 151.78 75.1455 151.765C75.1211 151.752 75.0979 151.737 75.0743 151.723C75.0472 151.707 75.0197 151.692 74.9934 151.674C74.9679 151.657 74.9437 151.638 74.9192 151.619C74.8964 151.602 74.8729 151.586 74.8508 151.568C74.8112 151.536 74.7735 151.501 74.7368 151.465C74.7308 151.459 74.7243 151.454 74.7184 151.448L63.8434 140.573ZM101.375 151.979V166.479C101.374 167.44 100.992 168.362 100.312 169.041C99.6325 169.721 98.7111 170.103 97.75 170.104H54.25C53.2889 170.103 52.3675 169.721 51.688 169.041C51.0084 168.362 50.6261 167.44 50.625 166.479V151.979C50.6261 151.018 51.0084 150.097 51.688 149.417C52.3675 148.738 53.2889 148.355 54.25 148.354H66.4977L72.1551 154.012C73.1748 155.031 74.5579 155.604 76 155.604C77.4421 155.604 78.8252 155.031 79.8449 154.012L85.5023 148.354H97.75C98.7111 148.355 99.6325 148.738 100.312 149.417C100.992 150.097 101.374 151.018 101.375 151.979ZM92.3126 159.229C92.3126 158.692 92.1532 158.166 91.8544 157.719C91.5557 157.272 91.1311 156.923 90.6343 156.717C90.1375 156.512 89.5908 156.458 89.0635 156.563C88.5361 156.668 88.0516 156.927 87.6714 157.307C87.2912 157.687 87.0323 158.171 86.9273 158.699C86.8224 159.226 86.8763 159.773 87.0821 160.27C87.2878 160.766 87.6363 161.191 88.0834 161.49C88.5305 161.789 89.0561 161.948 89.5939 161.948C90.3149 161.948 91.0064 161.662 91.5163 161.152C92.0262 160.642 92.3126 159.95 92.3126 159.229Z" fill="#1E2534"/>
</svg>
