<svg width="112" height="115" viewBox="0 0 112 115" fill="none" xmlns="http://www.w3.org/2000/svg">
<path d="M92.7647 61.2821C91.5399 66.3826 94.6817 71.5104 99.7822 72.7353C104.883 73.9601 110.01 70.8184 111.235 65.7179C112.46 60.6174 109.318 55.4896 104.218 54.2647C99.1173 53.0399 93.9896 56.1816 92.7647 61.2821Z" fill="url(#paint0_linear_3_345)"/>
<path d="M47.6897 61.6201C46.6516 66.7617 49.9781 71.7717 55.1201 72.8103C60.2617 73.8484 65.2717 70.5219 66.3103 65.3799C67.3484 60.2383 64.0219 55.2283 58.8799 54.1897C53.7383 53.1516 48.7283 56.4781 47.6897 61.6201Z" fill="url(#paint1_linear_3_345)"/>
<path d="M0.689722 61.6201C-0.34842 66.7617 2.97806 71.7717 8.12008 72.8103C13.2617 73.8484 18.2717 70.5219 19.3103 65.3799C20.3484 60.2383 17.0219 55.2283 11.8799 54.1897C6.7383 53.1516 1.72827 56.4781 0.689722 61.6201Z" fill="url(#paint2_linear_3_345)"/>
<path d="M92.1477 47.9864L93.5256 46.7957C97.054 43.7463 97.5081 38.3361 94.5398 34.7115L68.6153 3.05546C65.6472 -0.569116 60.3806 -1.03555 56.8522 2.01364L55.4741 3.20447C51.9461 6.25366 51.492 11.6638 54.4601 15.2884L80.3845 46.9447C83.3527 50.5693 88.6193 51.0354 92.1477 47.9864Z" fill="url(#paint3_linear_3_345)"/>
<path d="M92.1477 112.986L93.5256 111.796C97.054 108.746 97.5081 103.336 94.5398 99.7115L68.6153 68.0556C65.6472 64.431 60.3806 63.9644 56.8522 67.0135L55.4741 68.2045C51.9461 71.2535 51.492 76.6637 54.4601 80.2883L80.3845 111.945C83.3527 115.569 88.6193 116.035 92.1477 112.986Z" fill="url(#paint4_linear_3_345)"/>
<path d="M48.1542 51.0144L49.5299 49.8403C53.0531 46.8333 53.5066 41.4984 50.5428 37.9243L21.5917 3.01294C18.628 -0.561194 13.3691 -1.02114 9.84591 1.98562L8.46987 3.15988C4.94664 6.16664 4.49358 11.5015 7.45732 15.0757L36.4081 49.9872C39.3722 53.5614 44.631 54.021 48.1542 51.0144Z" fill="url(#paint5_linear_3_345)"/>
<path d="M50.1376 112.99L51.5188 111.802C55.0553 108.758 55.5104 103.358 52.5352 99.7403L25.6522 67.0496C22.6773 63.4318 17.3987 62.9666 13.8622 66.0098L12.481 67.1982C8.94457 70.2419 8.4898 75.6419 11.4647 79.2597L38.3477 111.95C41.323 115.568 46.6015 116.033 50.1376 112.99Z" fill="url(#paint6_linear_3_345)"/>
<defs>
<linearGradient id="paint0_linear_3_345" x1="111.235" y1="65.7179" x2="98.9551" y2="53.8673" gradientUnits="userSpaceOnUse">
<stop stop-color="#57E9A3"/>
<stop offset="1" stop-color="#57E9A3" stop-opacity="0"/>
</linearGradient>
<linearGradient id="paint1_linear_3_345" x1="66.3103" y1="65.3799" x2="55.2549" y2="53.4578" gradientUnits="userSpaceOnUse">
<stop stop-color="#57E9A3"/>
<stop offset="1" stop-color="#57E9A3" stop-opacity="0"/>
</linearGradient>
<linearGradient id="paint2_linear_3_345" x1="19.3099" y1="65.3799" x2="8.25447" y2="53.4578" gradientUnits="userSpaceOnUse">
<stop stop-color="#57E9A3"/>
<stop offset="1" stop-color="#57E9A3" stop-opacity="0"/>
</linearGradient>
<linearGradient id="paint3_linear_3_345" x1="92.8366" y1="47.391" x2="60.8911" y2="11.6127" gradientUnits="userSpaceOnUse">
<stop stop-color="#84E208"/>
<stop offset="0.0001" stop-color="#57E9A3"/>
<stop offset="1" stop-color="#57E9A3" stop-opacity="0"/>
</linearGradient>
<linearGradient id="paint4_linear_3_345" x1="92.8366" y1="112.391" x2="62.8285" y2="80.9952" gradientUnits="userSpaceOnUse">
<stop stop-color="#57E9A3"/>
<stop offset="1" stop-color="#57E9A3" stop-opacity="0"/>
</linearGradient>
<linearGradient id="paint5_linear_3_345" x1="48.8421" y1="50.4273" x2="14.1713" y2="11.495" gradientUnits="userSpaceOnUse">
<stop stop-color="#57E9A3"/>
<stop offset="1" stop-color="#57E9A3" stop-opacity="0"/>
</linearGradient>
<linearGradient id="paint6_linear_3_345" x1="50.8284" y1="112.396" x2="16.2442" y2="71.4549" gradientUnits="userSpaceOnUse">
<stop stop-color="#57E9A3"/>
<stop offset="1" stop-color="#57E9A3" stop-opacity="0"/>
</linearGradient>
</defs>
</svg>
