<svg width="134" height="53" viewBox="0 0 134 53" fill="none" xmlns="http://www.w3.org/2000/svg">
<path d="M92.1177 31.7486C92.1177 36.2645 87.6472 39.924 80.2491 39.924C72.8114 39.924 67.0353 36.3425 66.6398 30.97H72.4158C73.0092 33.5783 76.1347 35.2524 80.1701 35.2524C83.9284 35.2524 86.5791 33.6952 86.5791 31.5928C86.5791 25.0913 66.9959 31.7096 66.9959 19.2517C66.9959 14.4631 72.139 11.5044 78.9435 11.5044C86.1438 11.5044 91.2079 14.8915 91.643 19.8356H85.9065C85.4318 17.7334 82.5042 16.0205 78.9435 16.0205C75.0664 16.0205 72.5345 17.4608 72.5345 19.4074C72.5345 25.4418 92.1177 19.1349 92.1177 31.7486ZM92.5956 39.3401L106.482 12.0883H112.654L126.619 39.3401H120.447L117.164 32.9166H102.011L98.7278 39.3401H92.5956ZM104.543 27.9333H114.592L109.568 18.1227L104.543 27.9333ZM133.983 12.0883V39.3401H128.445V12.0883H133.983Z" fill="white"/>
<path d="M30.2549 9.36449C32.601 9.91891 34.9597 8.49678 35.5231 6.18806C36.0865 3.87933 34.6414 1.5583 32.2952 1.00387C29.9491 0.44944 27.5904 1.87158 27.027 4.18028C26.4637 6.48901 27.9088 8.81004 30.2549 9.36449Z" fill="url(#paint0_linear_62_1507)"/>
<path d="M30.4152 29.2546C32.7801 29.7245 35.0846 28.2189 35.5623 25.8914C36.0398 23.5641 34.5098 21.2964 32.1446 20.8264C29.7796 20.3565 27.4751 21.8621 26.9974 24.1896C26.5199 26.5168 28.05 28.7845 30.4152 29.2546Z" fill="url(#paint1_linear_62_1507)"/>
<path d="M30.4152 52.0381C32.7801 52.508 35.0846 51.0023 35.5623 48.6749C36.0398 46.3476 34.5098 44.0799 32.1446 43.6098C29.7796 43.1399 27.4751 44.6456 26.9974 46.973C26.5199 49.3003 28.05 51.568 30.4152 52.0381Z" fill="url(#paint2_linear_62_1507)"/>
<path d="M25.2587 9.99034L24.7112 9.34984C23.309 7.70977 20.8213 7.49872 19.1546 8.87843L4.59857 20.9286C2.93191 22.3083 2.71744 24.7563 4.11952 26.3964L4.66708 27.0369C6.06916 28.6768 8.55686 28.8879 10.2235 27.5083L24.7797 15.4581C26.4464 14.0784 26.6607 11.6304 25.2587 9.99034Z" fill="url(#paint3_linear_62_1507)"/>
<path d="M50.4299 9.99034L49.8825 9.34984C48.4803 7.70977 45.9926 7.49872 44.3259 8.87843L29.7699 20.9286C28.1032 22.3083 27.8887 24.7563 29.2907 26.3964L29.8384 27.0369C31.2404 28.6768 33.7281 28.8879 35.3947 27.5083L49.9509 15.4581C51.6176 14.0784 51.8319 11.6304 50.4299 9.99034Z" fill="url(#paint4_linear_62_1507)"/>
<path d="M25.401 30.1377L24.8535 29.4973C23.4513 27.8573 20.9636 27.6462 19.297 29.0258L3.01751 42.5027C1.35086 43.8824 1.13638 46.3304 2.53846 47.9705L3.08603 48.611C4.48811 50.2511 6.9758 50.462 8.64246 49.0824L24.922 35.6056C26.5887 34.2258 26.803 31.7778 25.401 30.1377Z" fill="url(#paint5_linear_62_1507)"/>
<path d="M53.8952 29.2619L53.3477 28.6213C51.9455 26.9813 49.4578 26.7702 47.7911 28.15L32.731 40.6174C31.0643 41.997 30.85 44.445 32.252 46.0851L32.7994 46.7257C34.2016 48.3658 36.6893 48.5767 38.356 47.197L53.4162 34.7296C55.0829 33.3498 55.2972 30.9018 53.8952 29.2619Z" fill="url(#paint6_linear_62_1507)"/>
<defs>
<linearGradient id="paint0_linear_62_1507" x1="32.2952" y1="1.00383" x2="26.9349" y2="6.64851" gradientUnits="userSpaceOnUse">
<stop stop-color="#57E9A3"/>
<stop offset="1" stop-color="#57E9A3" stop-opacity="0"/>
</linearGradient>
<linearGradient id="paint1_linear_62_1507" x1="32.1446" y1="20.8264" x2="26.7424" y2="25.917" gradientUnits="userSpaceOnUse">
<stop stop-color="#57E9A3"/>
<stop offset="1" stop-color="#57E9A3" stop-opacity="0"/>
</linearGradient>
<linearGradient id="paint2_linear_62_1507" x1="32.1446" y1="43.61" x2="26.7424" y2="48.7006" gradientUnits="userSpaceOnUse">
<stop stop-color="#57E9A3"/>
<stop offset="1" stop-color="#57E9A3" stop-opacity="0"/>
</linearGradient>
<linearGradient id="paint3_linear_62_1507" x1="24.9849" y1="9.67011" x2="8.37568" y2="24.3405" gradientUnits="userSpaceOnUse">
<stop stop-color="#84E208"/>
<stop offset="0.0001" stop-color="#57E9A3"/>
<stop offset="1" stop-color="#57E9A3" stop-opacity="0"/>
</linearGradient>
<linearGradient id="paint4_linear_62_1507" x1="50.1562" y1="9.67011" x2="35.5708" y2="23.4609" gradientUnits="userSpaceOnUse">
<stop stop-color="#57E9A3"/>
<stop offset="1" stop-color="#57E9A3" stop-opacity="0"/>
</linearGradient>
<linearGradient id="paint5_linear_62_1507" x1="25.1273" y1="29.8175" x2="7.00044" y2="45.988" gradientUnits="userSpaceOnUse">
<stop stop-color="#57E9A3"/>
<stop offset="1" stop-color="#57E9A3" stop-opacity="0"/>
</linearGradient>
<linearGradient id="paint6_linear_62_1507" x1="53.6213" y1="28.9415" x2="34.656" y2="44.856" gradientUnits="userSpaceOnUse">
<stop stop-color="#57E9A3"/>
<stop offset="1" stop-color="#57E9A3" stop-opacity="0"/>
</linearGradient>
</defs>
</svg>
